<!DOCTYPE svg PUBLIC "-//W3C//DTD SVG 20010904//EN" "http://www.w3.org/TR/2001/REC-SVG-20010904/DTD/svg10.dtd">
<svg version="1.0" xmlns="http://www.w3.org/2000/svg" width="1462px" height="1462px" viewBox="0 0 14620 14620" preserveAspectRatio="xMidYMid meet">
<g id="layer1" fill="#000000" stroke="none">
 <path d="M2780 13124 c-627 -74 -1089 -256 -1507 -593 -109 -88 -290 -269 -375 -377 -181 -228 -352 -557 -436 -839 -240 -807 -220 -1618 58 -2315 149 -373 385 -744 623 -979 84 -82 126 -92 55 -12 -109 121 -219 413 -273 722 -52 297 -69 554 -62 961 7 428 38 648 133 938 158 480 443 824 854 1030 285 143 591 211 945 211 477 1 942 -117 1415 -357 228 -115 506 -301 680 -453 35 -30 33 -29 -85 18 -285 115 -535 161 -865 161 -287 0 -497 -33 -749 -116 -461 -154 -841 -449 -1085 -843 -145 -235 -248 -525 -305 -867 -46 -275 -53 -633 -16 -874 64 -419 225 -810 470 -1140 95 -127 227 -266 243 -256 9 5 2 20 -22 48 -109 127 -197 406 -243 769 -21 171 -25 746 -5 884 49 343 145 616 292 823 258 365 697 571 1222 572 658 1 1342 -305 1849 -826 124 -127 190 -210 284 -353 231 -350 405 -811 515 -1359 39 -195 39 -199 -2 -208 -59 -12 -270 -95 -395 -155 -649 -306 -1193 -860 -1486 -1513 -109 -241 -193 -525 -238 -801 -16 -98 -22 -194 -26 -390 l-5 -260 -53 -141 c-185 -495 -413 -903 -679 -1213 -355 -416 -782 -781 -1164 -995 -56 -31 -100 -62 -97 -67 4 -5 670 -9 1722 -9 l1715 0 96 -56 c347 -199 718 -324 1147 -386 122 -18 648 -18 770 0 429 62 799 186 1147 386 l96 56 1715 0 c1052 0 1718 4 1722 9 3 5 -41 36 -97 67 -382 214 -809 579 -1164 995 -266 310 -494 718 -679 1213 l-53 141 -5 260 c-7 362 -48 598 -158 923 -264 774 -850 1430 -1592 1781 -125 60 -336 143 -394 155 -42 9 -42 13 -2 208 112 559 288 1023 522 1373 244 367 633 700 1055 906 733 358 1519 344 2023 -35 308 -232 488 -585 561 -1101 20 -138 16 -713 -5 -884 -46 -363 -134 -642 -243 -769 -24 -28 -31 -43 -22 -48 16 -10 148 129 243 256 200 270 345 580 424 910 45 189 62 315 68 531 9 299 -19 538 -98 848 -100 394 -271 695 -545 962 -228 221 -473 369 -785 473 -252 83 -462 116 -749 116 -330 0 -580 -46 -865 -161 -118 -47 -120 -48 -85 -18 190 166 456 342 709 468 453 227 921 343 1386 342 354 0 660 -68 945 -211 542 -272 860 -776 966 -1530 35 -252 29 -894 -12 -1204 -56 -428 -168 -767 -302 -917 -27 -31 -39 -50 -31 -54 15 -10 140 115 240 238 485 599 733 1384 689 2183 -34 630 -198 1186 -470 1598 -97 148 -164 230 -295 365 -397 408 -915 665 -1540 763 -191 30 -673 33 -860 5 -351 -53 -686 -163 -941 -311 -60 -34 -122 -70 -139 -79 -36 -20 -924 -225 -1310 -302 -413 -83 -684 -120 -1150 -161 -302 -26 -473 -19 -980 37 -256 28 -470 62 -780 124 -386 77 -1274 282 -1310 302 -16 9 -79 45 -139 79 -248 144 -573 253 -906 305 -108 17 -190 22 -410 24 -151 2 -291 1 -310 -1z m3945 -6795 c15 -34 29 -87 32 -118 12 -133 -47 -212 -199 -269 -184 -69 -603 -308 -1159 -662 l-247 -157 19 68 c40 144 111 290 226 464 93 141 240 323 309 384 241 213 569 332 960 350 29 1 33 -3 59 -60z m1494 30 c209 -35 433 -124 585 -233 99 -71 153 -123 248 -240 199 -244 341 -491 397 -695 l19 -68 -247 157 c-574 365 -984 598 -1181 670 -166 62 -222 207 -145 379 l28 61 91 -6 c50 -3 142 -15 205 -25z"/>
 </g>

</svg>